<svg xmlns="http://www.w3.org/2000/svg" xmlns:xlink="http://www.w3.org/1999/xlink" xmlns:lucid="lucid" width="2247.55" height="913.65"><g transform="translate(2020.5 721)" lucid:page-tab-id="0_0"><path d="M-2000-1000H500V500h-2500z" fill="#fff"/><path d="M-1367.35-692a8 8 0 0 1 8-8h836.75a8 8 0 0 1 8 8v25.15a8 8 0 0 1-8 8h-836.75a8 8 0 0 1-8-8z" stroke="#000" stroke-opacity="0" stroke-width="2" fill="#fff" fill-opacity="0"/><use xlink:href="#a" transform="matrix(1,0,0,1,-1363.3456031080952,-696) translate(206.12604938271605 25.782777777777778)"/><use xlink:href="#b" transform="matrix(1,0,0,1,-1363.3456031080952,-696) translate(268.62234567901237 25.782777777777778)"/><use xlink:href="#c" transform="matrix(1,0,0,1,-1363.3456031080952,-696) translate(290.4741975308642 25.782777777777778)"/><use xlink:href="#d" transform="matrix(1,0,0,1,-1363.3456031080952,-696) translate(456.2569135802469 25.782777777777778)"/><use xlink:href="#e" transform="matrix(1,0,0,1,-1363.3456031080952,-696) translate(539.2211111111111 25.782777777777778)"/><path d="M-1106.98-660.2h337.36M-1106.96-660.2h-1.02M-769.64-660.2h1.02" stroke="#b2b2b2" stroke-width="2" fill="none"/><path d="M-1367.35-650.85a8 8 0 0 1 8-8h837.7a8 8 0 0 1 8 8v2.85a8 8 0 0 1-8 8h-837.7a8 8 0 0 1-8-8z" stroke="#000" stroke-opacity="0" stroke-width="2" fill="#fff" fill-opacity="0"/><use xlink:href="#f" transform="matrix(1,0,0,1,-1363.3456031080948,-654.8447760432176) translate(307.6149897119342 14.917037037037037)"/><use xlink:href="#g" transform="matrix(1,0,0,1,-1363.3456031080948,-654.8447760432176) translate(356.86056584362143 14.917037037037037)"/><use xlink:href="#h" transform="matrix(1,0,0,1,-1363.3456031080948,-654.8447760432176) translate(398.4155041152263 14.917037037037037)"/><use xlink:href="#i" transform="matrix(1,0,0,1,-1363.3456031080948,-654.8447760432176) translate(410.8649897119342 14.917037037037037)"/><use xlink:href="#j" transform="matrix(1,0,0,1,-1363.3456031080948,-654.8447760432176) translate(485.5194135802469 14.917037037037037)"/><use xlink:href="#k" transform="matrix(1,0,0,1,-1363.3456031080948,-654.8447760432176) translate(511.01324074074074 14.917037037037037)"/><path d="M-2000-349.85a6 6 0 0 1 6-6h389.65a6 6 0 0 1 6 6v188a6 6 0 0 1-6 6H-1994a6 6 0 0 1-6-6z" fill="#fff"/><path d="M-2000-315.85v-34a6 6 0 0 1 6-6h389.65a6 6 0 0 1 6 6v34" fill="#ccc"/><path d="M-2000-349.85a6 6 0 0 1 6-6h389.65a6 6 0 0 1 6 6v188a6 6 0 0 1-6 6H-1994a6 6 0 0 1-6-6zM-2000-315.85h401.65M-1956-315.85v160M-1846-315.85v160" stroke="#3a414a" fill="none"/><use xlink:href="#l" transform="matrix(1,0,0,1,-1990,-355.84527061765584) translate(162.575 23.6)"/><use xlink:href="#m" transform="matrix(1,0,0,1,-1995,-313.34527061765584) translate(5 17.1)"/><use xlink:href="#n" transform="matrix(1,0,0,1,-1951,-313.34527061765584) translate(0 17.1)"/><use xlink:href="#o" transform="matrix(1,0,0,1,-1841,-313.34527061765584) translate(0 17.1)"/><use xlink:href="#p" transform="matrix(1,0,0,1,-1951,-281.34527061765584) translate(0 17.1)"/><use xlink:href="#q" transform="matrix(1,0,0,1,-1841,-281.34527061765584) translate(0 17.1)"/><use xlink:href="#r" transform="matrix(1,0,0,1,-1841,-281.34527061765584) translate(79.9 17.1)"/><use xlink:href="#s" transform="matrix(1,0,0,1,-1951,-249.34527061765584) translate(0 17.1)"/><use xlink:href="#q" transform="matrix(1,0,0,1,-1841,-249.34527061765584) translate(0 17.1)"/><use xlink:href="#r" transform="matrix(1,0,0,1,-1841,-249.34527061765584) translate(79.9 17.1)"/><use xlink:href="#t" transform="matrix(1,0,0,1,-1951,-217.34527061765584) translate(0 17.1)"/><use xlink:href="#u" transform="matrix(1,0,0,1,-1841,-217.34527061765584) translate(0 17.1)"/><use xlink:href="#v" transform="matrix(1,0,0,1,-1841,-217.34527061765584) translate(87.85 17.1)"/><use xlink:href="#w" transform="matrix(1,0,0,1,-1841,-217.34527061765584) translate(149.75 17.1)"/><use xlink:href="#x" transform="matrix(1,0,0,1,-1841,-217.34527061765584) translate(188.65 17.1)"/><use xlink:href="#y" transform="matrix(1,0,0,1,-1951,-185.34527061765584) translate(0 17.1)"/><use xlink:href="#u" transform="matrix(1,0,0,1,-1841,-185.34527061765584) translate(0 17.1)"/><use xlink:href="#v" transform="matrix(1,0,0,1,-1841,-185.34527061765584) translate(87.85 17.1)"/><use xlink:href="#w" transform="matrix(1,0,0,1,-1841,-185.34527061765584) translate(149.75 17.1)"/><use xlink:href="#x" transform="matrix(1,0,0,1,-1841,-185.34527061765584) translate(188.65 17.1)"/><path d="M-1400-414a6 6 0 0 1 6-6h430.45a6 6 0 0 1 6 6v188a6 6 0 0 1-6 6H-1394a6 6 0 0 1-6-6z" fill="#fff"/><path d="M-1400-380v-34a6 6 0 0 1 6-6h430.45a6 6 0 0 1 6 6v34" fill="#ccc"/><path d="M-1400-414a6 6 0 0 1 6-6h430.45a6 6 0 0 1 6 6v188a6 6 0 0 1-6 6H-1394a6 6 0 0 1-6-6zM-1400-380h442.45M-1356-380v160M-1205.2-380v160" stroke="#3a414a" fill="none"/><use xlink:href="#z" transform="matrix(1,0,0,1,-1390,-419.9999999998836) translate(148.64999999999998 23.6)"/><use xlink:href="#m" transform="matrix(1,0,0,1,-1395,-377.4999999998836) translate(5 17.1)"/><use xlink:href="#n" transform="matrix(1,0,0,1,-1351,-377.4999999998836) translate(0 17.1)"/><use xlink:href="#o" transform="matrix(1,0,0,1,-1200.2,-377.4999999998836) translate(0 17.1)"/><use xlink:href="#A" transform="matrix(1,0,0,1,-1351,-345.4999999998836) translate(0 17.1)"/><use xlink:href="#q" transform="matrix(1,0,0,1,-1200.2,-345.4999999998836) translate(0 17.1)"/><use xlink:href="#r" transform="matrix(1,0,0,1,-1200.2,-345.4999999998836) translate(79.9 17.1)"/><use xlink:href="#B" transform="matrix(1,0,0,1,-1351,-313.4999999998836) translate(0 17.1)"/><use xlink:href="#o" transform="matrix(1,0,0,1,-1200.2,-313.4999999998836) translate(0 17.1)"/><use xlink:href="#t" transform="matrix(1,0,0,1,-1351,-281.4999999998836) translate(0 17.1)"/><use xlink:href="#u" transform="matrix(1,0,0,1,-1200.2,-281.4999999998836) translate(0 17.1)"/><use xlink:href="#v" transform="matrix(1,0,0,1,-1200.2,-281.4999999998836) translate(87.85 17.1)"/><use xlink:href="#w" transform="matrix(1,0,0,1,-1200.2,-281.4999999998836) translate(149.75 17.1)"/><use xlink:href="#x" transform="matrix(1,0,0,1,-1200.2,-281.4999999998836) translate(188.65 17.1)"/><use xlink:href="#y" transform="matrix(1,0,0,1,-1351,-249.49999999988358) translate(0 17.1)"/><use xlink:href="#u" transform="matrix(1,0,0,1,-1200.2,-249.49999999988358) translate(0 17.1)"/><use xlink:href="#v" transform="matrix(1,0,0,1,-1200.2,-249.49999999988358) translate(87.85 17.1)"/><use xlink:href="#w" transform="matrix(1,0,0,1,-1200.2,-249.49999999988358) translate(149.75 17.1)"/><use xlink:href="#x" transform="matrix(1,0,0,1,-1200.2,-249.49999999988358) translate(188.65 17.1)"/><path d="M-840-414a6 6 0 0 1 6-6h435.35a6 6 0 0 1 6 6v188a6 6 0 0 1-6 6H-834a6 6 0 0 1-6-6z" fill="#fff"/><path d="M-840-380v-34a6 6 0 0 1 6-6h435.35a6 6 0 0 1 6 6v34" fill="#ccc"/><path d="M-840-414a6 6 0 0 1 6-6h435.35a6 6 0 0 1 6 6v188a6 6 0 0 1-6 6H-834a6 6 0 0 1-6-6zM-840-380h447.35M-796-380v160M-640.3-380v160" stroke="#3a414a" fill="none"/><use xlink:href="#C" transform="matrix(1,0,0,1,-830,-419.9999999998836) translate(185.05 23.6)"/><use xlink:href="#m" transform="matrix(1,0,0,1,-835,-377.4999999998836) translate(5 17.1)"/><use xlink:href="#n" transform="matrix(1,0,0,1,-791,-377.4999999998836) translate(0 17.1)"/><use xlink:href="#o" transform="matrix(1,0,0,1,-635.3,-377.4999999998836) translate(0 17.1)"/><use xlink:href="#D" transform="matrix(1,0,0,1,-835,-345.4999999998836) translate(5.524999999999999 17.1)"/><use xlink:href="#E" transform="matrix(1,0,0,1,-791,-345.4999999998836) translate(0 17.1)"/><use xlink:href="#o" transform="matrix(1,0,0,1,-635.3,-345.4999999998836) translate(0 17.1)"/><use xlink:href="#F" transform="matrix(1,0,0,1,-791,-313.4999999998836) translate(0 17.1)"/><use xlink:href="#G" transform="matrix(1,0,0,1,-635.3,-313.4999999998836) translate(0 17.1)"/><use xlink:href="#t" transform="matrix(1,0,0,1,-791,-281.4999999998836) translate(0 17.1)"/><use xlink:href="#u" transform="matrix(1,0,0,1,-635.3,-281.4999999998836) translate(0 17.1)"/><use xlink:href="#v" transform="matrix(1,0,0,1,-635.3,-281.4999999998836) translate(87.85 17.1)"/><use xlink:href="#w" transform="matrix(1,0,0,1,-635.3,-281.4999999998836) translate(149.75 17.1)"/><use xlink:href="#x" transform="matrix(1,0,0,1,-635.3,-281.4999999998836) translate(188.65 17.1)"/><use xlink:href="#y" transform="matrix(1,0,0,1,-791,-249.49999999988358) translate(0 17.1)"/><use xlink:href="#u" transform="matrix(1,0,0,1,-635.3,-249.49999999988358) translate(0 17.1)"/><use xlink:href="#v" transform="matrix(1,0,0,1,-635.3,-249.49999999988358) translate(87.85 17.1)"/><use xlink:href="#w" transform="matrix(1,0,0,1,-635.3,-249.49999999988358) translate(149.75 17.1)"/><use xlink:href="#x" transform="matrix(1,0,0,1,-635.3,-249.49999999988358) translate(188.65 17.1)"/><path d="M-937.05-364.1h32.27a6 6 0 0 1 6 6v20.07a6 6 0 0 0 6 6h32.87" stroke="#3a414a" fill="none"/><path d="M-937.05-354.1v-20M-957.05-364.1h20" stroke="#3a414a" fill="#fff"/><path d="M-840.72-322.03l-20-10 20-10" stroke="#3a414a" fill="#fff" fill-opacity="0"/><path d="M-840.72-332.03h-20" stroke="#3a414a" fill="#fff"/><path d="M-2000-89.84a6 6 0 0 1 6-6h389.65a6 6 0 0 1 6 6v188a6 6 0 0 1-6 6H-1994a6 6 0 0 1-6-6z" fill="#fff"/><path d="M-2000-89.84a6 6 0 0 1 6-6h389.65a6 6 0 0 1 6 6v188a6 6 0 0 1-6 6H-1994a6 6 0 0 1-6-6zM-2000-55.84h401.65M-1956-55.84v160M-1846-55.84v160" stroke="#3a414a" fill="none"/><use xlink:href="#H" transform="matrix(1,0,0,1,-1990,-95.84527061765584) translate(159.55 23.6)"/><use xlink:href="#m" transform="matrix(1,0,0,1,-1995,-53.34527061765584) translate(5 17.1)"/><use xlink:href="#n" transform="matrix(1,0,0,1,-1951,-53.34527061765584) translate(0 17.1)"/><use xlink:href="#o" transform="matrix(1,0,0,1,-1841,-53.34527061765584) translate(0 17.1)"/><use xlink:href="#p" transform="matrix(1,0,0,1,-1951,-21.345270617655842) translate(0 17.1)"/><use xlink:href="#q" transform="matrix(1,0,0,1,-1841,-21.345270617655842) translate(0 17.1)"/><use xlink:href="#r" transform="matrix(1,0,0,1,-1841,-21.345270617655842) translate(79.9 17.1)"/><use xlink:href="#I" transform="matrix(1,0,0,1,-1951,10.654729382344158) translate(0 17.1)"/><use xlink:href="#q" transform="matrix(1,0,0,1,-1841,10.654729382344158) translate(0 17.1)"/><use xlink:href="#r" transform="matrix(1,0,0,1,-1841,10.654729382344158) translate(79.9 17.1)"/><use xlink:href="#t" transform="matrix(1,0,0,1,-1951,42.65472938234416) translate(0 17.1)"/><use xlink:href="#u" transform="matrix(1,0,0,1,-1841,42.65472938234416) translate(0 17.1)"/><use xlink:href="#v" transform="matrix(1,0,0,1,-1841,42.65472938234416) translate(87.85 17.1)"/><use xlink:href="#w" transform="matrix(1,0,0,1,-1841,42.65472938234416) translate(149.75 17.1)"/><use xlink:href="#x" transform="matrix(1,0,0,1,-1841,42.65472938234416) translate(188.65 17.1)"/><use xlink:href="#y" transform="matrix(1,0,0,1,-1951,74.65472938234416) translate(0 17.1)"/><use xlink:href="#u" transform="matrix(1,0,0,1,-1841,74.65472938234416) translate(0 17.1)"/><use xlink:href="#v" transform="matrix(1,0,0,1,-1841,74.65472938234416) translate(87.85 17.1)"/><use xlink:href="#w" transform="matrix(1,0,0,1,-1841,74.65472938234416) translate(149.75 17.1)"/><use xlink:href="#x" transform="matrix(1,0,0,1,-1841,74.65472938234416) translate(188.65 17.1)"/><path d="M-2000-634a6 6 0 0 1 6-6h389.65a6 6 0 0 1 6 6v188a6 6 0 0 1-6 6H-1994a6 6 0 0 1-6-6z" fill="#fff"/><path d="M-2000-634a6 6 0 0 1 6-6h389.65a6 6 0 0 1 6 6v188a6 6 0 0 1-6 6H-1994a6 6 0 0 1-6-6zM-2000-600h401.65M-1956-600v160M-1846-600v160" stroke="#3a414a" fill="none"/><use xlink:href="#J" transform="matrix(1,0,0,1,-1990,-639.9999999998836) translate(169.025 23.6)"/><use xlink:href="#m" transform="matrix(1,0,0,1,-1995,-597.4999999998836) translate(5 17.1)"/><use xlink:href="#n" transform="matrix(1,0,0,1,-1951,-597.4999999998836) translate(0 17.1)"/><use xlink:href="#o" transform="matrix(1,0,0,1,-1841,-597.4999999998836) translate(0 17.1)"/><use xlink:href="#K" transform="matrix(1,0,0,1,-1951,-565.4999999998836) translate(0 17.1)"/><use xlink:href="#q" transform="matrix(1,0,0,1,-1841,-565.4999999998836) translate(0 17.1)"/><use xlink:href="#r" transform="matrix(1,0,0,1,-1841,-565.4999999998836) translate(79.9 17.1)"/><use xlink:href="#I" transform="matrix(1,0,0,1,-1951,-533.4999999998836) translate(0 17.1)"/><use xlink:href="#q" transform="matrix(1,0,0,1,-1841,-533.4999999998836) translate(0 17.1)"/><use xlink:href="#r" transform="matrix(1,0,0,1,-1841,-533.4999999998836) translate(79.9 17.1)"/><use xlink:href="#t" transform="matrix(1,0,0,1,-1951,-501.4999999998836) translate(0 17.1)"/><use xlink:href="#u" transform="matrix(1,0,0,1,-1841,-501.4999999998836) translate(0 17.1)"/><use xlink:href="#v" transform="matrix(1,0,0,1,-1841,-501.4999999998836) translate(87.85 17.1)"/><use xlink:href="#w" transform="matrix(1,0,0,1,-1841,-501.4999999998836) translate(149.75 17.1)"/><use xlink:href="#x" transform="matrix(1,0,0,1,-1841,-501.4999999998836) translate(188.65 17.1)"/><use xlink:href="#y" transform="matrix(1,0,0,1,-1951,-469.4999999998836) translate(0 17.1)"/><use xlink:href="#u" transform="matrix(1,0,0,1,-1841,-469.4999999998836) translate(0 17.1)"/><use xlink:href="#v" transform="matrix(1,0,0,1,-1841,-469.4999999998836) translate(87.85 17.1)"/><use xlink:href="#w" transform="matrix(1,0,0,1,-1841,-469.4999999998836) translate(149.75 17.1)"/><use xlink:href="#x" transform="matrix(1,0,0,1,-1841,-469.4999999998836) translate(188.65 17.1)"/><path d="M-1577.85-299.95H-1440" stroke="#3a414a" fill="none"/><path d="M-1577.85-289.95v-20M-1597.85-299.95h20M-1410.5-309.95v20M-1400.5-299.95h-20M-1420.5-299.95c0 5.52-4.48 10-10 10s-10-4.48-10-10c0-5.53 4.48-10 10-10s10 4.47 10 10" stroke="#3a414a" fill="#fff"/><path d="M-1577.85-39.95h72.67a6 6 0 0 0 6-6v-249.5a6 6 0 0 1 6-6h53.18" stroke="#3a414a" fill="none"/><path d="M-1577.85-29.95v-20M-1597.85-39.95h20M-1410.5-311.46v20M-1400.5-301.46h-20M-1420.5-301.46c0 5.52-4.48 10-10 10s-10-4.48-10-10 4.48-10 10-10 10 4.48 10 10" stroke="#3a414a" fill="#fff"/><path d="M-1577.85-584.1h72.67a6 6 0 0 1 6 6v272.15a6 6 0 0 0 6 6h53.18" stroke="#3a414a" fill="none"/><path d="M-1577.85-574.1v-20M-1597.85-584.1h20M-1410.5-309.95v20M-1400.5-299.95h-20M-1420.5-299.95c0 5.52-4.48 10-10 10s-10-4.48-10-10c0-5.53 4.48-10 10-10s10 4.47 10 10" stroke="#3a414a" fill="#fff"/><path d="M-816.15-149.84a6 6 0 0 1 6-6h411.5a6 6 0 0 1 6 6v316a6 6 0 0 1-6 6h-411.5a6 6 0 0 1-6-6z" fill="#fff"/><path d="M-816.15-115.84v-34a6 6 0 0 1 6-6h411.5a6 6 0 0 1 6 6v34" fill="#ccc"/><path d="M-816.15-149.84a6 6 0 0 1 6-6h411.5a6 6 0 0 1 6 6v316a6 6 0 0 1-6 6h-411.5a6 6 0 0 1-6-6zM-816.15-115.84h423.5M-772.15-115.84v288M-640.3-115.84v288" stroke="#3a414a" fill="none"/><use xlink:href="#L" transform="matrix(1,0,0,1,-806.15,-155.84527061765584) translate(117.075 23.6)"/><use xlink:href="#m" transform="matrix(1,0,0,1,-811.15,-113.34527061765584) translate(5 17.1)"/><use xlink:href="#n" transform="matrix(1,0,0,1,-767.15,-113.34527061765584) translate(0 17.1)"/><use xlink:href="#o" transform="matrix(1,0,0,1,-635.3,-113.34527061765584) translate(0 17.1)"/><use xlink:href="#M" transform="matrix(1,0,0,1,-767.15,-81.34527061765584) translate(0 17.1)"/><use xlink:href="#q" transform="matrix(1,0,0,1,-635.3,-81.34527061765584) translate(0 17.1)"/><use xlink:href="#r" transform="matrix(1,0,0,1,-635.3,-81.34527061765584) translate(79.9 17.1)"/><g><use xlink:href="#N" transform="matrix(1,0,0,1,-767.15,-49.34527061765584) translate(0 17.1)"/></g><g><use xlink:href="#q" transform="matrix(1,0,0,1,-635.3,-49.34527061765584) translate(0 17.1)"/><use xlink:href="#r" transform="matrix(1,0,0,1,-635.3,-49.34527061765584) translate(79.9 17.1)"/></g><g><use xlink:href="#O" transform="matrix(1,0,0,1,-767.15,-17.345270617655842) translate(0 17.1)"/></g><g><use xlink:href="#q" transform="matrix(1,0,0,1,-635.3,-17.345270617655842) translate(0 17.1)"/><use xlink:href="#r" transform="matrix(1,0,0,1,-635.3,-17.345270617655842) translate(79.9 17.1)"/></g><g><use xlink:href="#P" transform="matrix(1,0,0,1,-767.15,14.654729382344158) translate(0 17.1)"/></g><g><use xlink:href="#s" transform="matrix(1,0,0,1,-635.3,14.654729382344158) translate(0 17.1)"/></g><g><use xlink:href="#Q" transform="matrix(1,0,0,1,-767.15,46.65472938234416) translate(0 17.1)"/></g><g><use xlink:href="#q" transform="matrix(1,0,0,1,-635.3,46.65472938234416) translate(0 17.1)"/><use xlink:href="#r" transform="matrix(1,0,0,1,-635.3,46.65472938234416) translate(79.9 17.1)"/></g><g><use xlink:href="#R" transform="matrix(1,0,0,1,-767.15,78.65472938234416) translate(0 17.1)"/></g><g><use xlink:href="#o" transform="matrix(1,0,0,1,-635.3,78.65472938234416) translate(0 17.1)"/></g><g><use xlink:href="#S" transform="matrix(1,0,0,1,-767.15,110.65472938234416) translate(0 17.1)"/></g><g><use xlink:href="#q" transform="matrix(1,0,0,1,-635.3,110.65472938234416) translate(0 17.1)"/><use xlink:href="#r" transform="matrix(1,0,0,1,-635.3,110.65472938234416) translate(79.9 17.1)"/></g><g><use xlink:href="#t" transform="matrix(1,0,0,1,-767.15,142.65472938234416) translate(0 17.1)"/></g><g><use xlink:href="#u" transform="matrix(1,0,0,1,-635.3,142.65472938234416) translate(0 17.1)"/><use xlink:href="#v" transform="matrix(1,0,0,1,-635.3,142.65472938234416) translate(87.85 17.1)"/><use xlink:href="#w" transform="matrix(1,0,0,1,-635.3,142.65472938234416) translate(149.75 17.1)"/><use xlink:href="#x" transform="matrix(1,0,0,1,-635.3,142.65472938234416) translate(188.65 17.1)"/></g><path d="M-200-278.27a6 6 0 0 1 6-6h394.55a6 6 0 0 1 6 6v220a6 6 0 0 1-6 6H-194a6 6 0 0 1-6-6z" fill="#fff"/><path d="M-200-244.27v-34a6 6 0 0 1 6-6h394.55a6 6 0 0 1 6 6v34" fill="#ccc"/><path d="M-200-278.27a6 6 0 0 1 6-6h394.55a6 6 0 0 1 6 6v220a6 6 0 0 1-6 6H-194a6 6 0 0 1-6-6zM-200-244.27h406.55M-156-244.27v192M-41.1-244.27v192" stroke="#3a414a" fill="none"/><g><use xlink:href="#T" transform="matrix(1,0,0,1,-190,-284.2674793608838) translate(81.075 23.6)"/></g><g><use xlink:href="#m" transform="matrix(1,0,0,1,-195,-241.76747936088378) translate(5 17.1)"/></g><g><use xlink:href="#n" transform="matrix(1,0,0,1,-151,-241.76747936088378) translate(0 17.1)"/></g><g><use xlink:href="#o" transform="matrix(1,0,0,1,-36.099999999999994,-241.76747936088378) translate(0 17.1)"/></g><g><use xlink:href="#K" transform="matrix(1,0,0,1,-151,-209.76747936088378) translate(0 17.1)"/></g><g><use xlink:href="#q" transform="matrix(1,0,0,1,-36.099999999999994,-209.76747936088378) translate(0 17.1)"/><use xlink:href="#r" transform="matrix(1,0,0,1,-36.099999999999994,-209.76747936088378) translate(79.9 17.1)"/></g><g><use xlink:href="#U" transform="matrix(1,0,0,1,-151,-177.76747936088378) translate(0 17.1)"/></g><g><use xlink:href="#q" transform="matrix(1,0,0,1,-36.099999999999994,-177.76747936088378) translate(0 17.1)"/><use xlink:href="#r" transform="matrix(1,0,0,1,-36.099999999999994,-177.76747936088378) translate(79.9 17.1)"/></g><g><use xlink:href="#V" transform="matrix(1,0,0,1,-151,-145.76747936088378) translate(0 17.1)"/></g><g><use xlink:href="#o" transform="matrix(1,0,0,1,-36.099999999999994,-145.76747936088378) translate(0 17.1)"/></g><g><use xlink:href="#D" transform="matrix(1,0,0,1,-195,-113.76747936088378) translate(5.524999999999999 17.1)"/></g><g><use xlink:href="#W" transform="matrix(1,0,0,1,-151,-113.76747936088378) translate(0 17.1)"/></g><g><use xlink:href="#o" transform="matrix(1,0,0,1,-36.099999999999994,-113.76747936088378) translate(0 17.1)"/></g><g><use xlink:href="#t" transform="matrix(1,0,0,1,-151,-81.76747936088378) translate(0 17.1)"/></g><g><use xlink:href="#u" transform="matrix(1,0,0,1,-36.099999999999994,-81.76747936088378) translate(0 17.1)"/><use xlink:href="#v" transform="matrix(1,0,0,1,-36.099999999999994,-81.76747936088378) translate(87.85 17.1)"/><use xlink:href="#w" transform="matrix(1,0,0,1,-36.099999999999994,-81.76747936088378) translate(149.75 17.1)"/><use xlink:href="#x" transform="matrix(1,0,0,1,-36.099999999999994,-81.76747936088378) translate(188.65 17.1)"/></g><path d="M-372.15-100.1h152.24" stroke="#3a414a" fill="none"/><path d="M-372.15-90.1v-20M-392.15-100.1h20" stroke="#3a414a" fill="#fff"/><path d="M-200.72-90.1l-20-10 20-10" stroke="#3a414a" fill="#fff" fill-opacity="0"/><path d="M-200.72-100.1h-20" stroke="#3a414a" fill="#fff"/><path d="M-372.15-364.1h69.82a6 6 0 0 1 6 6v219.92a6 6 0 0 0 6 6h69.83" stroke="#3a414a" fill="none"/><path d="M-372.15-354.1v-20M-392.15-364.1h20M-220.5-142.18v20M-200.5-132.18h-20" stroke="#3a414a" fill="#fff"/><defs><path fill="#b2b2b2" d="M24 0v-248h195v40H76v63h132v40H76v65h150V0H24" id="X"/><path fill="#b2b2b2" d="M240-174c0 40-23 61-54 70L253 0h-59l-57-94H76V0H24v-248c93 4 217-23 216 74zM76-134c48-2 112 12 112-38 0-48-66-32-112-35v73" id="Y"/><path fill="#b2b2b2" d="M24-248c120-7 223 5 221 122C244-46 201 0 124 0H24v-248zM76-40c74 7 117-18 117-86 0-67-45-88-117-82v168" id="Z"/><g id="a"><use transform="matrix(0.0728395061728395,0,0,0.0728395061728395,0,0)" xlink:href="#X"/><use transform="matrix(0.0728395061728395,0,0,0.0728395061728395,17.48148148148148,0)" xlink:href="#Y"/><use transform="matrix(0.0728395061728395,0,0,0.0728395061728395,36.34691358024691,0)" xlink:href="#Z"/></g><path fill="#b2b2b2" d="M11-79v-35h178v35H11" id="aa"/><use transform="matrix(0.0728395061728395,0,0,0.0728395061728395,0,0)" xlink:href="#aa" id="b"/><path fill="#b2b2b2" d="M24-248c93 1 206-16 204 79-1 75-69 88-152 82V0H24v-248zm52 121c47 0 100 7 100-41 0-47-54-39-100-39v80" id="ab"/><path fill="#b2b2b2" d="M110-194c64 0 96 36 96 99 0 64-35 99-97 99-61 0-95-36-95-99 0-62 34-99 96-99zm-1 164c35 0 45-28 45-65 0-40-10-65-43-65-34 0-45 26-45 65 0 36 10 65 43 65" id="ac"/><path fill="#b2b2b2" d="M25 0v-261h50V0H25" id="ad"/><path fill="#b2b2b2" d="M123 10C108 53 80 86 19 72V37c35 8 53-11 59-39L3-190h52l48 148c12-52 28-100 44-148h51" id="ae"/><path fill="#b2b2b2" d="M220-157c-53 9-28 100-34 157h-49v-107c1-27-5-49-29-50C55-147 81-57 75 0H25l-1-190h47c2 12-1 28 3 38 10-53 101-56 108 0 13-22 24-43 59-42 82 1 51 116 57 194h-49v-107c-1-25-5-48-29-50" id="af"/><path fill="#b2b2b2" d="M135-150c-39-12-60 13-60 57V0H25l-1-190h47c2 13-1 29 3 40 6-28 27-53 61-41v41" id="ag"/><path fill="#b2b2b2" d="M135-194c53 0 70 44 70 98 0 56-19 98-73 100-31 1-45-17-59-34 3 33 2 69 2 105H25l-1-265h48c2 10 0 23 3 31 11-24 29-35 60-35zM114-30c33 0 39-31 40-66 0-38-9-64-40-64-56 0-55 130 0 130" id="ah"/><path fill="#b2b2b2" d="M114-157C55-157 80-60 75 0H25v-261h50l-1 109c12-26 28-41 61-42 86-1 58 113 63 194h-50c-7-57 23-157-34-157" id="ai"/><path fill="#b2b2b2" d="M25-224v-37h50v37H25zM25 0v-190h50V0H25" id="aj"/><path fill="#b2b2b2" d="M190-63c-7 42-38 67-86 67-59 0-84-38-90-98-12-110 154-137 174-36l-49 2c-2-19-15-32-35-32-30 0-35 28-38 64-6 74 65 87 74 30" id="ak"/><g id="c"><use transform="matrix(0.0728395061728395,0,0,0.0728395061728395,0,0)" xlink:href="#ab"/><use transform="matrix(0.0728395061728395,0,0,0.0728395061728395,17.48148148148148,0)" xlink:href="#ac"/><use transform="matrix(0.0728395061728395,0,0,0.0728395061728395,33.43333333333333,0)" xlink:href="#ad"/><use transform="matrix(0.0728395061728395,0,0,0.0728395061728395,40.717283950617286,0)" xlink:href="#ae"/><use transform="matrix(0.0728395061728395,0,0,0.0728395061728395,55.28518518518518,0)" xlink:href="#af"/><use transform="matrix(0.0728395061728395,0,0,0.0728395061728395,78.5938271604938,0)" xlink:href="#ac"/><use transform="matrix(0.0728395061728395,0,0,0.0728395061728395,94.54567901234567,0)" xlink:href="#ag"/><use transform="matrix(0.0728395061728395,0,0,0.0728395061728395,104.7432098765432,0)" xlink:href="#ah"/><use transform="matrix(0.0728395061728395,0,0,0.0728395061728395,120.69506172839506,0)" xlink:href="#ai"/><use transform="matrix(0.0728395061728395,0,0,0.0728395061728395,136.64691358024692,0)" xlink:href="#aj"/><use transform="matrix(0.0728395061728395,0,0,0.0728395061728395,143.93086419753087,0)" xlink:href="#ak"/></g><path fill="#b2b2b2" d="M133-34C117-15 103 5 69 4 32 3 11-16 11-54c-1-60 55-63 116-61 1-26-3-47-28-47-18 1-26 9-28 27l-52-2c7-38 36-58 82-57s74 22 75 68l1 82c-1 14 12 18 25 15v27c-30 8-71 5-69-32zm-48 3c29 0 43-24 42-57-32 0-66-3-65 30 0 17 8 27 23 27" id="al"/><path fill="#b2b2b2" d="M195-6C206 82 75 100 31 46c-4-6-6-13-8-21l49-6c3 16 16 24 34 25 40 0 42-37 40-79-11 22-30 35-61 35-53 0-70-43-70-97 0-56 18-96 73-97 30 0 46 14 59 34l2-30h47zm-90-29c32 0 41-27 41-63 0-35-9-62-40-62-32 0-39 29-40 63 0 36 9 62 39 62" id="am"/><path fill="#b2b2b2" d="M185-48c-13 30-37 53-82 52C43 2 14-33 14-96s30-98 90-98c62 0 83 45 84 108H66c0 31 8 55 39 56 18 0 30-7 34-22zm-45-69c5-46-57-63-70-21-2 6-4 13-4 21h74" id="an"/><g id="d"><use transform="matrix(0.0728395061728395,0,0,0.0728395061728395,0,0)" xlink:href="#aj"/><use transform="matrix(0.0728395061728395,0,0,0.0728395061728395,7.28395061728395,0)" xlink:href="#af"/><use transform="matrix(0.0728395061728395,0,0,0.0728395061728395,30.59259259259259,0)" xlink:href="#al"/><use transform="matrix(0.0728395061728395,0,0,0.0728395061728395,45.160493827160494,0)" xlink:href="#am"/><use transform="matrix(0.0728395061728395,0,0,0.0728395061728395,61.11234567901234,0)" xlink:href="#an"/></g><path fill="#b2b2b2" d="M137-138c1-29-70-34-71-4 15 46 118 7 119 86 1 83-164 76-172 9l43-7c4 19 20 25 44 25 33 8 57-30 24-41C81-84 22-81 20-136c-2-80 154-74 161-7" id="ao"/><g id="e"><use transform="matrix(0.0728395061728395,0,0,0.0728395061728395,0,0)" xlink:href="#am"/><use transform="matrix(0.0728395061728395,0,0,0.0728395061728395,15.95185185185185,0)" xlink:href="#al"/><use transform="matrix(0.0728395061728395,0,0,0.0728395061728395,30.51975308641975,0)" xlink:href="#ad"/><use transform="matrix(0.0728395061728395,0,0,0.0728395061728395,37.803703703703704,0)" xlink:href="#ad"/><use transform="matrix(0.0728395061728395,0,0,0.0728395061728395,45.08765432098765,0)" xlink:href="#an"/><use transform="matrix(0.0728395061728395,0,0,0.0728395061728395,59.65555555555555,0)" xlink:href="#ag"/><use transform="matrix(0.0728395061728395,0,0,0.0728395061728395,69.85308641975308,0)" xlink:href="#aj"/><use transform="matrix(0.0728395061728395,0,0,0.0728395061728395,77.13703703703703,0)" xlink:href="#an"/><use transform="matrix(0.0728395061728395,0,0,0.0728395061728395,91.70493827160493,0)" xlink:href="#ao"/></g><path fill="#b2b2b2" d="M30-248c118-7 216 8 213 122C240-48 200 0 122 0H30v-248zM63-27c89 8 146-16 146-99s-60-101-146-95v194" id="ap"/><path fill="#b2b2b2" d="M100-194c62-1 85 37 85 99 1 63-27 99-86 99S16-35 15-95c0-66 28-99 85-99zM99-20c44 1 53-31 53-75 0-43-8-75-51-75s-53 32-53 75 10 74 51 75" id="aq"/><path fill="#b2b2b2" d="M117-194c89-4 53 116 60 194h-32v-121c0-31-8-49-39-48C34-167 62-67 57 0H25l-1-190h30c1 10-1 24 2 32 11-22 29-35 61-36" id="ar"/><path fill="#b2b2b2" d="M141-36C126-15 110 5 73 4 37 3 15-17 15-53c-1-64 63-63 125-63 3-35-9-54-41-54-24 1-41 7-42 31l-33-3c5-37 33-52 76-52 45 0 72 20 72 64v82c-1 20 7 32 28 27v20c-31 9-61-2-59-35zM48-53c0 20 12 33 32 33 41-3 63-29 60-74-43 2-92-5-92 41" id="as"/><g id="f"><use transform="matrix(0.04248971193415638,0,0,0.04248971193415638,0,0)" xlink:href="#ap"/><use transform="matrix(0.04248971193415638,0,0,0.04248971193415638,11.004835390946502,0)" xlink:href="#aq"/><use transform="matrix(0.04248971193415638,0,0,0.04248971193415638,19.502777777777776,0)" xlink:href="#ar"/><use transform="matrix(0.04248971193415638,0,0,0.04248971193415638,28.000720164609046,0)" xlink:href="#ar"/><use transform="matrix(0.04248971193415638,0,0,0.04248971193415638,36.498662551440326,0)" xlink:href="#as"/></g><path fill="#b2b2b2" d="M240 0l2-218c-23 76-54 145-80 218h-23L58-218 59 0H30v-248h44l77 211c21-75 51-140 76-211h43V0h-30" id="at"/><path fill="#b2b2b2" d="M141-36C126-15 110 5 73 4 37 3 15-17 15-53c-1-64 63-63 125-63 3-35-9-54-41-54-24 1-41 7-42 31l-33-3c5-37 33-52 76-52 45 0 72 20 72 64v82c-1 20 7 32 28 27v20c-31 9-61-2-59-35zM48-53c0 20 12 33 32 33 41-3 63-29 60-74-43 2-92-5-92 41zm70-161v-33h29v33h-29zm-69 0v-33h29v33H49" id="au"/><path fill="#b2b2b2" d="M177-190C167-65 218 103 67 71c-23-6-38-20-44-43l32-5c15 47 100 32 89-28v-30C133-14 115 1 83 1 29 1 15-40 15-95c0-56 16-97 71-98 29-1 48 16 59 35 1-10 0-23 2-32h30zM94-22c36 0 50-32 50-73 0-42-14-75-50-75-39 0-46 34-46 75s6 73 46 73" id="av"/><path fill="#b2b2b2" d="M24-231v-30h32v30H24zM24 0v-190h32V0H24" id="aw"/><g id="g"><use transform="matrix(0.04248971193415638,0,0,0.04248971193415638,0,0)" xlink:href="#at"/><use transform="matrix(0.04248971193415638,0,0,0.04248971193415638,12.704423868312757,0)" xlink:href="#au"/><use transform="matrix(0.04248971193415638,0,0,0.04248971193415638,21.20236625514403,0)" xlink:href="#av"/><use transform="matrix(0.04248971193415638,0,0,0.04248971193415638,29.7003086419753,0)" xlink:href="#aw"/></g><path fill="#b2b2b2" d="M32 76v-337h29V76H32" id="ax"/><use transform="matrix(0.04248971193415638,0,0,0.04248971193415638,0,0)" xlink:href="#ax" id="h"/><path fill="#b2b2b2" d="M190 0L58-211 59 0H30v-248h39L202-35l-2-213h31V0h-41" id="ay"/><path fill="#b2b2b2" d="M108 0H70L1-190h34L89-25l56-165h34" id="az"/><path fill="#b2b2b2" d="M100-194c63 0 86 42 84 106H49c0 40 14 67 53 68 26 1 43-12 49-29l28 8c-11 28-37 45-77 45C44 4 14-33 15-96c1-61 26-98 85-98zm52 81c6-60-76-77-97-28-3 7-6 17-6 28h103" id="aA"/><path fill="#b2b2b2" d="M210-169c-67 3-38 105-44 169h-31v-121c0-29-5-50-35-48C34-165 62-65 56 0H25l-1-190h30c1 10-1 24 2 32 10-44 99-50 107 0 11-21 27-35 58-36 85-2 47 119 55 194h-31v-121c0-29-5-49-35-48" id="aB"/><path fill="#b2b2b2" d="M115-194c53 0 69 39 70 98 0 66-23 100-70 100C84 3 66-7 56-30L54 0H23l1-261h32v101c10-23 28-34 59-34zm-8 174c40 0 45-34 45-75 0-40-5-75-45-74-42 0-51 32-51 76 0 43 10 73 51 73" id="aC"/><path fill="#b2b2b2" d="M114-163C36-179 61-72 57 0H25l-1-190h30c1 12-1 29 2 39 6-27 23-49 58-41v29" id="aD"/><g id="i"><use transform="matrix(0.04248971193415638,0,0,0.04248971193415638,0,0)" xlink:href="#ay"/><use transform="matrix(0.04248971193415638,0,0,0.04248971193415638,11.004835390946502,0)" xlink:href="#aq"/><use transform="matrix(0.04248971193415638,0,0,0.04248971193415638,19.502777777777776,0)" xlink:href="#az"/><use transform="matrix(0.04248971193415638,0,0,0.04248971193415638,27.150925925925925,0)" xlink:href="#aA"/><use transform="matrix(0.04248971193415638,0,0,0.04248971193415638,35.6488683127572,0)" xlink:href="#aB"/><use transform="matrix(0.04248971193415638,0,0,0.04248971193415638,48.35329218106995,0)" xlink:href="#aC"/><use transform="matrix(0.04248971193415638,0,0,0.04248971193415638,56.851234567901244,0)" xlink:href="#aA"/><use transform="matrix(0.04248971193415638,0,0,0.04248971193415638,65.34917695473251,0)" xlink:href="#aD"/></g><path fill="#b2b2b2" d="M27 0v-27h64v-190l-56 39v-29l58-41h29v221h61V0H27" id="aE"/><path fill="#b2b2b2" d="M54-142c48-35 137-8 131 61C196 18 31 33 14-55l32-4c7 23 22 37 52 37 35-1 51-22 54-58 4-55-73-65-99-34H22l8-134h141v27H59" id="aF"/><path fill="#b2b2b2" d="M68-38c1 34 0 65-14 84H32c9-13 17-26 17-46H33v-38h35" id="aG"/><g id="j"><use transform="matrix(0.04248971193415638,0,0,0.04248971193415638,0,0)" xlink:href="#aE"/><use transform="matrix(0.04248971193415638,0,0,0.04248971193415638,8.497942386831275,0)" xlink:href="#aF"/><use transform="matrix(0.04248971193415638,0,0,0.04248971193415638,16.99588477366255,0)" xlink:href="#aG"/></g><path fill="#b2b2b2" d="M101-251c82-7 93 87 43 132L82-64C71-53 59-42 53-27h129V0H18c2-99 128-94 128-182 0-28-16-43-45-43s-46 15-49 41l-32-3c6-41 34-60 81-64" id="aH"/><path fill="#b2b2b2" d="M101-251c68 0 85 55 85 127S166 4 100 4C33 4 14-52 14-124c0-73 17-127 87-127zm-1 229c47 0 54-49 54-102s-4-102-53-102c-51 0-55 48-55 102 0 53 5 102 54 102" id="aI"/><path fill="#b2b2b2" d="M126-127c33 6 58 20 58 59 0 88-139 92-164 29-3-8-5-16-6-25l32-3c6 27 21 44 54 44 32 0 52-15 52-46 0-38-36-46-79-43v-28c39 1 72-4 72-42 0-27-17-43-46-43-28 0-47 15-49 41l-32-3c6-42 35-63 81-64 48-1 79 21 79 65 0 36-21 52-52 59" id="aJ"/><g id="k"><use transform="matrix(0.04248971193415638,0,0,0.04248971193415638,0,0)" xlink:href="#aH"/><use transform="matrix(0.04248971193415638,0,0,0.04248971193415638,8.497942386831275,0)" xlink:href="#aI"/><use transform="matrix(0.04248971193415638,0,0,0.04248971193415638,16.99588477366255,0)" xlink:href="#aH"/><use transform="matrix(0.04248971193415638,0,0,0.04248971193415638,25.493827160493822,0)" xlink:href="#aJ"/></g><path d="M141-36C126-15 110 5 73 4 37 3 15-17 15-53c-1-64 63-63 125-63 3-35-9-54-41-54-24 1-41 7-42 31l-33-3c5-37 33-52 76-52 45 0 72 20 72 64v82c-1 20 7 32 28 27v20c-31 9-61-2-59-35zM48-53c0 20 12 33 32 33 41-3 63-29 60-74-43 2-92-5-92 41" id="aK"/><path d="M114-163C36-179 61-72 57 0H25l-1-190h30c1 12-1 29 2 39 6-27 23-49 58-41v29" id="aL"/><path d="M59-47c-2 24 18 29 38 22v24C64 9 27 4 27-40v-127H5v-23h24l9-43h21v43h35v23H59v120" id="aM"/><path d="M24-231v-30h32v30H24zM24 0v-190h32V0H24" id="aN"/><path d="M96-169c-40 0-48 33-48 73s9 75 48 75c24 0 41-14 43-38l32 2c-6 37-31 61-74 61-59 0-76-41-82-99-10-93 101-131 147-64 4 7 5 14 7 22l-32 3c-4-21-16-35-41-35" id="aO"/><path d="M24 0v-261h32V0H24" id="aP"/><path d="M100-194c63 0 86 42 84 106H49c0 40 14 67 53 68 26 1 43-12 49-29l28 8c-11 28-37 45-77 45C44 4 14-33 15-96c1-61 26-98 85-98zm52 81c6-60-76-77-97-28-3 7-6 17-6 28h103" id="aQ"/><path d="M135-143c-3-34-86-38-87 0 15 53 115 12 119 90S17 21 10-45l28-5c4 36 97 45 98 0-10-56-113-15-118-90-4-57 82-63 122-42 12 7 21 19 24 35" id="aR"/><g id="l"><use transform="matrix(0.05,0,0,0.05,0,0)" xlink:href="#aK"/><use transform="matrix(0.05,0,0,0.05,10,0)" xlink:href="#aL"/><use transform="matrix(0.05,0,0,0.05,15.949999999999998,0)" xlink:href="#aM"/><use transform="matrix(0.05,0,0,0.05,20.95,0)" xlink:href="#aN"/><use transform="matrix(0.05,0,0,0.05,24.9,0)" xlink:href="#aO"/><use transform="matrix(0.05,0,0,0.05,33.9,0)" xlink:href="#aP"/><use transform="matrix(0.05,0,0,0.05,37.85,0)" xlink:href="#aQ"/><use transform="matrix(0.05,0,0,0.05,47.85,0)" xlink:href="#aR"/></g><path d="M30-248c87 1 191-15 191 75 0 78-77 80-158 76V0H30v-248zm33 125c57 0 124 11 124-50 0-59-68-47-124-48v98" id="aS"/><path d="M194 0L95-120 63-95V0H30v-248h33v124l119-124h40L117-140 236 0h-42" id="aT"/><g id="m"><use transform="matrix(0.05,0,0,0.05,0,0)" xlink:href="#aS"/><use transform="matrix(0.05,0,0,0.05,12,0)" xlink:href="#aT"/></g><path d="M85-194c31 0 48 13 60 33l-1-100h32l1 261h-30c-2-10 0-23-3-31C134-8 116 4 85 4 32 4 16-35 15-94c0-66 23-100 70-100zm9 24c-40 0-46 34-46 75 0 40 6 74 45 74 42 0 51-32 51-76 0-42-9-74-50-73" id="aU"/><g id="n"><use transform="matrix(0.05,0,0,0.05,0,0)" xlink:href="#aN"/><use transform="matrix(0.05,0,0,0.05,3.95,0)" xlink:href="#aU"/></g><path d="M115-194c53 0 69 39 70 98 0 66-23 100-70 100C84 3 66-7 56-30L54 0H23l1-261h32v101c10-23 28-34 59-34zm-8 174c40 0 45-34 45-75 0-40-5-75-45-74-42 0-51 32-51 76 0 43 10 73 51 73" id="aV"/><path d="M177-190C167-65 218 103 67 71c-23-6-38-20-44-43l32-5c15 47 100 32 89-28v-30C133-14 115 1 83 1 29 1 15-40 15-95c0-56 16-97 71-98 29-1 48 16 59 35 1-10 0-23 2-32h30zM94-22c36 0 50-32 50-73 0-42-14-75-50-75-39 0-46 34-46 75s6 73 46 73" id="aW"/><path d="M117-194c89-4 53 116 60 194h-32v-121c0-31-8-49-39-48C34-167 62-67 57 0H25l-1-190h30c1 10-1 24 2 32 11-22 29-35 61-36" id="aX"/><g id="o"><use transform="matrix(0.05,0,0,0.05,0,0)" xlink:href="#aV"/><use transform="matrix(0.05,0,0,0.05,10,0)" xlink:href="#aN"/><use transform="matrix(0.05,0,0,0.05,13.949999999999998,0)" xlink:href="#aW"/><use transform="matrix(0.05,0,0,0.05,23.95,0)" xlink:href="#aN"/><use transform="matrix(0.05,0,0,0.05,27.899999999999995,0)" xlink:href="#aX"/><use transform="matrix(0.05,0,0,0.05,37.9,0)" xlink:href="#aM"/></g><g id="p"><use transform="matrix(0.05,0,0,0.05,0,0)" xlink:href="#aM"/><use transform="matrix(0.05,0,0,0.05,5,0)" xlink:href="#aN"/><use transform="matrix(0.05,0,0,0.05,8.95,0)" xlink:href="#aM"/><use transform="matrix(0.05,0,0,0.05,13.949999999999998,0)" xlink:href="#aP"/><use transform="matrix(0.05,0,0,0.05,17.9,0)" xlink:href="#aQ"/></g><path d="M106-169C34-169 62-67 57 0H25v-261h32l-1 103c12-21 28-36 61-36 89 0 53 116 60 194h-32v-121c2-32-8-49-39-48" id="aY"/><g id="q"><use transform="matrix(0.05,0,0,0.05,0,0)" xlink:href="#aO"/><use transform="matrix(0.05,0,0,0.05,9,0)" xlink:href="#aY"/><use transform="matrix(0.05,0,0,0.05,19,0)" xlink:href="#aK"/><use transform="matrix(0.05,0,0,0.05,29,0)" xlink:href="#aL"/><use transform="matrix(0.05,0,0,0.05,34.95,0)" xlink:href="#aK"/><use transform="matrix(0.05,0,0,0.05,44.95,0)" xlink:href="#aO"/><use transform="matrix(0.05,0,0,0.05,53.95,0)" xlink:href="#aM"/><use transform="matrix(0.05,0,0,0.05,58.95,0)" xlink:href="#aQ"/><use transform="matrix(0.05,0,0,0.05,68.95,0)" xlink:href="#aL"/></g><path d="M108 0H70L1-190h34L89-25l56-165h34" id="aZ"/><path d="M179-190L93 31C79 59 56 82 12 73V49c39 6 53-20 64-50L1-190h34L92-34l54-156h33" id="ba"/><g id="r"><use transform="matrix(0.05,0,0,0.05,0,0)" xlink:href="#aZ"/><use transform="matrix(0.05,0,0,0.05,9,0)" xlink:href="#aK"/><use transform="matrix(0.05,0,0,0.05,19,0)" xlink:href="#aL"/><use transform="matrix(0.05,0,0,0.05,24.95,0)" xlink:href="#ba"/><use transform="matrix(0.05,0,0,0.05,33.95,0)" xlink:href="#aN"/><use transform="matrix(0.05,0,0,0.05,37.900000000000006,0)" xlink:href="#aX"/><use transform="matrix(0.05,0,0,0.05,47.900000000000006,0)" xlink:href="#aW"/></g><path d="M141 0L90-78 38 0H4l68-98-65-92h35l48 74 47-74h35l-64 92 68 98h-35" id="bb"/><g id="s"><use transform="matrix(0.05,0,0,0.05,0,0)" xlink:href="#aM"/><use transform="matrix(0.05,0,0,0.05,5,0)" xlink:href="#aQ"/><use transform="matrix(0.05,0,0,0.05,15,0)" xlink:href="#bb"/><use transform="matrix(0.05,0,0,0.05,24,0)" xlink:href="#aM"/></g><path d="M-5 72V49h209v23H-5" id="bc"/><g id="t"><use transform="matrix(0.05,0,0,0.05,0,0)" xlink:href="#aO"/><use transform="matrix(0.05,0,0,0.05,9,0)" xlink:href="#aL"/><use transform="matrix(0.05,0,0,0.05,14.949999999999998,0)" xlink:href="#aQ"/><use transform="matrix(0.05,0,0,0.05,24.95,0)" xlink:href="#aK"/><use transform="matrix(0.05,0,0,0.05,34.95,0)" xlink:href="#aM"/><use transform="matrix(0.05,0,0,0.05,39.95,0)" xlink:href="#aQ"/><use transform="matrix(0.05,0,0,0.05,49.95,0)" xlink:href="#aU"/><use transform="matrix(0.05,0,0,0.05,59.95,0)" xlink:href="#bc"/><use transform="matrix(0.05,0,0,0.05,69.95,0)" xlink:href="#aK"/><use transform="matrix(0.05,0,0,0.05,79.95,0)" xlink:href="#aM"/></g><path d="M210-169c-67 3-38 105-44 169h-31v-121c0-29-5-50-35-48C34-165 62-65 56 0H25l-1-190h30c1 10-1 24 2 32 10-44 99-50 107 0 11-21 27-35 58-36 85-2 47 119 55 194h-31v-121c0-29-5-49-35-48" id="bd"/><path d="M115-194c55 1 70 41 70 98S169 2 115 4C84 4 66-9 55-30l1 105H24l-1-265h31l2 30c10-21 28-34 59-34zm-8 174c40 0 45-34 45-75s-6-73-45-74c-42 0-51 32-51 76 0 43 10 73 51 73" id="be"/><g id="u"><use transform="matrix(0.05,0,0,0.05,0,0)" xlink:href="#aM"/><use transform="matrix(0.05,0,0,0.05,5,0)" xlink:href="#aN"/><use transform="matrix(0.05,0,0,0.05,8.95,0)" xlink:href="#bd"/><use transform="matrix(0.05,0,0,0.05,23.9,0)" xlink:href="#aQ"/><use transform="matrix(0.05,0,0,0.05,33.9,0)" xlink:href="#aR"/><use transform="matrix(0.05,0,0,0.05,42.9,0)" xlink:href="#aM"/><use transform="matrix(0.05,0,0,0.05,47.9,0)" xlink:href="#aK"/><use transform="matrix(0.05,0,0,0.05,57.900000000000006,0)" xlink:href="#bd"/><use transform="matrix(0.05,0,0,0.05,72.85,0)" xlink:href="#be"/></g><path d="M206 0h-36l-40-164L89 0H53L-1-190h32L70-26l43-164h34l41 164 42-164h31" id="bf"/><path d="M100-194c62-1 85 37 85 99 1 63-27 99-86 99S16-35 15-95c0-66 28-99 85-99zM99-20c44 1 53-31 53-75 0-43-8-75-51-75s-53 32-53 75 10 74 51 75" id="bg"/><path d="M84 4C-5 8 30-112 23-190h32v120c0 31 7 50 39 49 72-2 45-101 50-169h31l1 190h-30c-1-10 1-25-2-33-11 22-28 36-60 37" id="bh"/><g id="v"><use transform="matrix(0.05,0,0,0.05,0,0)" xlink:href="#bf"/><use transform="matrix(0.05,0,0,0.05,12.950000000000001,0)" xlink:href="#aN"/><use transform="matrix(0.05,0,0,0.05,16.900000000000002,0)" xlink:href="#aM"/><use transform="matrix(0.05,0,0,0.05,21.900000000000002,0)" xlink:href="#aY"/><use transform="matrix(0.05,0,0,0.05,31.900000000000002,0)" xlink:href="#bg"/><use transform="matrix(0.05,0,0,0.05,41.900000000000006,0)" xlink:href="#bh"/><use transform="matrix(0.05,0,0,0.05,51.900000000000006,0)" xlink:href="#aM"/></g><g id="w"><use transform="matrix(0.05,0,0,0.05,0,0)" xlink:href="#aM"/><use transform="matrix(0.05,0,0,0.05,5,0)" xlink:href="#aN"/><use transform="matrix(0.05,0,0,0.05,8.95,0)" xlink:href="#bd"/><use transform="matrix(0.05,0,0,0.05,23.9,0)" xlink:href="#aQ"/></g><path d="M9 0v-24l116-142H16v-24h144v24L44-24h123V0H9" id="bi"/><g id="x"><use transform="matrix(0.05,0,0,0.05,0,0)" xlink:href="#bi"/><use transform="matrix(0.05,0,0,0.05,9,0)" xlink:href="#bg"/><use transform="matrix(0.05,0,0,0.05,19,0)" xlink:href="#aX"/><use transform="matrix(0.05,0,0,0.05,29,0)" xlink:href="#aQ"/></g><g id="y"><use transform="matrix(0.05,0,0,0.05,0,0)" xlink:href="#bh"/><use transform="matrix(0.05,0,0,0.05,10,0)" xlink:href="#be"/><use transform="matrix(0.05,0,0,0.05,20,0)" xlink:href="#aU"/><use transform="matrix(0.05,0,0,0.05,30,0)" xlink:href="#aK"/><use transform="matrix(0.05,0,0,0.05,40,0)" xlink:href="#aM"/><use transform="matrix(0.05,0,0,0.05,45,0)" xlink:href="#aQ"/><use transform="matrix(0.05,0,0,0.05,55,0)" xlink:href="#aU"/><use transform="matrix(0.05,0,0,0.05,65,0)" xlink:href="#bc"/><use transform="matrix(0.05,0,0,0.05,75,0)" xlink:href="#aK"/><use transform="matrix(0.05,0,0,0.05,85,0)" xlink:href="#aM"/></g><g id="z"><use transform="matrix(0.05,0,0,0.05,0,0)" xlink:href="#aN"/><use transform="matrix(0.05,0,0,0.05,3.95,0)" xlink:href="#bd"/><use transform="matrix(0.05,0,0,0.05,18.900000000000002,0)" xlink:href="#aK"/><use transform="matrix(0.05,0,0,0.05,28.900000000000002,0)" xlink:href="#aW"/><use transform="matrix(0.05,0,0,0.05,38.900000000000006,0)" xlink:href="#aQ"/><use transform="matrix(0.05,0,0,0.05,48.900000000000006,0)" xlink:href="#bc"/><use transform="matrix(0.05,0,0,0.05,58.900000000000006,0)" xlink:href="#aW"/><use transform="matrix(0.05,0,0,0.05,68.9,0)" xlink:href="#aK"/><use transform="matrix(0.05,0,0,0.05,78.9,0)" xlink:href="#aP"/><use transform="matrix(0.05,0,0,0.05,82.85000000000001,0)" xlink:href="#aP"/><use transform="matrix(0.05,0,0,0.05,86.80000000000001,0)" xlink:href="#aQ"/><use transform="matrix(0.05,0,0,0.05,96.80000000000001,0)" xlink:href="#aL"/><use transform="matrix(0.05,0,0,0.05,102.75,0)" xlink:href="#aN"/><use transform="matrix(0.05,0,0,0.05,106.7,0)" xlink:href="#aQ"/><use transform="matrix(0.05,0,0,0.05,116.7,0)" xlink:href="#aR"/></g><g id="A"><use transform="matrix(0.05,0,0,0.05,0,0)" xlink:href="#aW"/><use transform="matrix(0.05,0,0,0.05,10,0)" xlink:href="#aK"/><use transform="matrix(0.05,0,0,0.05,20,0)" xlink:href="#aP"/><use transform="matrix(0.05,0,0,0.05,23.95,0)" xlink:href="#aP"/><use transform="matrix(0.05,0,0,0.05,27.899999999999995,0)" xlink:href="#aQ"/><use transform="matrix(0.05,0,0,0.05,37.9,0)" xlink:href="#aL"/><use transform="matrix(0.05,0,0,0.05,43.85,0)" xlink:href="#ba"/><use transform="matrix(0.05,0,0,0.05,52.85,0)" xlink:href="#aK"/><use transform="matrix(0.05,0,0,0.05,62.85,0)" xlink:href="#aV"/><use transform="matrix(0.05,0,0,0.05,72.85,0)" xlink:href="#aP"/><use transform="matrix(0.05,0,0,0.05,76.8,0)" xlink:href="#aQ"/><use transform="matrix(0.05,0,0,0.05,86.8,0)" xlink:href="#bc"/><use transform="matrix(0.05,0,0,0.05,96.8,0)" xlink:href="#aM"/><use transform="matrix(0.05,0,0,0.05,101.8,0)" xlink:href="#ba"/><use transform="matrix(0.05,0,0,0.05,110.80000000000001,0)" xlink:href="#be"/><use transform="matrix(0.05,0,0,0.05,120.80000000000001,0)" xlink:href="#aQ"/></g><g id="B"><use transform="matrix(0.05,0,0,0.05,0,0)" xlink:href="#aW"/><use transform="matrix(0.05,0,0,0.05,10,0)" xlink:href="#aK"/><use transform="matrix(0.05,0,0,0.05,20,0)" xlink:href="#aP"/><use transform="matrix(0.05,0,0,0.05,23.95,0)" xlink:href="#aP"/><use transform="matrix(0.05,0,0,0.05,27.899999999999995,0)" xlink:href="#aQ"/><use transform="matrix(0.05,0,0,0.05,37.9,0)" xlink:href="#aL"/><use transform="matrix(0.05,0,0,0.05,43.85,0)" xlink:href="#ba"/><use transform="matrix(0.05,0,0,0.05,52.85,0)" xlink:href="#aK"/><use transform="matrix(0.05,0,0,0.05,62.85,0)" xlink:href="#aV"/><use transform="matrix(0.05,0,0,0.05,72.85,0)" xlink:href="#aP"/><use transform="matrix(0.05,0,0,0.05,76.8,0)" xlink:href="#aQ"/><use transform="matrix(0.05,0,0,0.05,86.8,0)" xlink:href="#bc"/><use transform="matrix(0.05,0,0,0.05,96.8,0)" xlink:href="#aN"/><use transform="matrix(0.05,0,0,0.05,100.75,0)" xlink:href="#aU"/></g><g id="C"><use transform="matrix(0.05,0,0,0.05,0,0)" xlink:href="#aN"/><use transform="matrix(0.05,0,0,0.05,3.95,0)" xlink:href="#bd"/><use transform="matrix(0.05,0,0,0.05,18.900000000000002,0)" xlink:href="#aK"/><use transform="matrix(0.05,0,0,0.05,28.900000000000002,0)" xlink:href="#aW"/><use transform="matrix(0.05,0,0,0.05,38.900000000000006,0)" xlink:href="#aQ"/><use transform="matrix(0.05,0,0,0.05,48.900000000000006,0)" xlink:href="#aR"/></g><path d="M63-220v92h138v28H63V0H30v-248h175v28H63" id="bj"/><g id="D"><use transform="matrix(0.05,0,0,0.05,0,0)" xlink:href="#bj"/><use transform="matrix(0.05,0,0,0.05,10.950000000000001,0)" xlink:href="#aT"/></g><g id="E"><use transform="matrix(0.05,0,0,0.05,0,0)" xlink:href="#aN"/><use transform="matrix(0.05,0,0,0.05,3.95,0)" xlink:href="#bd"/><use transform="matrix(0.05,0,0,0.05,18.900000000000002,0)" xlink:href="#aK"/><use transform="matrix(0.05,0,0,0.05,28.900000000000002,0)" xlink:href="#aW"/><use transform="matrix(0.05,0,0,0.05,38.900000000000006,0)" xlink:href="#aQ"/><use transform="matrix(0.05,0,0,0.05,48.900000000000006,0)" xlink:href="#bc"/><use transform="matrix(0.05,0,0,0.05,58.900000000000006,0)" xlink:href="#aW"/><use transform="matrix(0.05,0,0,0.05,68.9,0)" xlink:href="#aK"/><use transform="matrix(0.05,0,0,0.05,78.9,0)" xlink:href="#aP"/><use transform="matrix(0.05,0,0,0.05,82.85000000000001,0)" xlink:href="#aP"/><use transform="matrix(0.05,0,0,0.05,86.80000000000001,0)" xlink:href="#aQ"/><use transform="matrix(0.05,0,0,0.05,96.80000000000001,0)" xlink:href="#aL"/><use transform="matrix(0.05,0,0,0.05,102.75,0)" xlink:href="#ba"/><use transform="matrix(0.05,0,0,0.05,111.75,0)" xlink:href="#bc"/><use transform="matrix(0.05,0,0,0.05,121.75,0)" xlink:href="#aN"/><use transform="matrix(0.05,0,0,0.05,125.7,0)" xlink:href="#aU"/></g><g id="F"><use transform="matrix(0.05,0,0,0.05,0,0)" xlink:href="#be"/><use transform="matrix(0.05,0,0,0.05,10,0)" xlink:href="#bg"/><use transform="matrix(0.05,0,0,0.05,20,0)" xlink:href="#aR"/><use transform="matrix(0.05,0,0,0.05,29,0)" xlink:href="#aN"/><use transform="matrix(0.05,0,0,0.05,32.95,0)" xlink:href="#aM"/><use transform="matrix(0.05,0,0,0.05,37.95,0)" xlink:href="#aN"/><use transform="matrix(0.05,0,0,0.05,41.900000000000006,0)" xlink:href="#bg"/><use transform="matrix(0.05,0,0,0.05,51.900000000000006,0)" xlink:href="#aX"/></g><g id="G"><use transform="matrix(0.05,0,0,0.05,0,0)" xlink:href="#aN"/><use transform="matrix(0.05,0,0,0.05,3.95,0)" xlink:href="#aX"/><use transform="matrix(0.05,0,0,0.05,13.949999999999998,0)" xlink:href="#aM"/><use transform="matrix(0.05,0,0,0.05,18.95,0)" xlink:href="#aQ"/><use transform="matrix(0.05,0,0,0.05,28.950000000000003,0)" xlink:href="#aW"/><use transform="matrix(0.05,0,0,0.05,38.95,0)" xlink:href="#aQ"/><use transform="matrix(0.05,0,0,0.05,48.95,0)" xlink:href="#aL"/></g><path d="M24-231v-30h32v30H24zM-9 49c24 4 33-6 33-30v-209h32V24c2 40-23 58-65 49V49" id="bk"/><g id="H"><use transform="matrix(0.05,0,0,0.05,0,0)" xlink:href="#be"/><use transform="matrix(0.05,0,0,0.05,10,0)" xlink:href="#aL"/><use transform="matrix(0.05,0,0,0.05,15.949999999999998,0)" xlink:href="#bg"/><use transform="matrix(0.05,0,0,0.05,25.950000000000003,0)" xlink:href="#bk"/><use transform="matrix(0.05,0,0,0.05,29.899999999999995,0)" xlink:href="#aQ"/><use transform="matrix(0.05,0,0,0.05,39.9,0)" xlink:href="#aO"/><use transform="matrix(0.05,0,0,0.05,48.9,0)" xlink:href="#aM"/><use transform="matrix(0.05,0,0,0.05,53.900000000000006,0)" xlink:href="#aR"/></g><g id="I"><use transform="matrix(0.05,0,0,0.05,0,0)" xlink:href="#aU"/><use transform="matrix(0.05,0,0,0.05,10,0)" xlink:href="#aQ"/><use transform="matrix(0.05,0,0,0.05,20,0)" xlink:href="#aR"/><use transform="matrix(0.05,0,0,0.05,29,0)" xlink:href="#aO"/><use transform="matrix(0.05,0,0,0.05,38,0)" xlink:href="#aL"/><use transform="matrix(0.05,0,0,0.05,43.95,0)" xlink:href="#aN"/><use transform="matrix(0.05,0,0,0.05,47.900000000000006,0)" xlink:href="#be"/><use transform="matrix(0.05,0,0,0.05,57.900000000000006,0)" xlink:href="#aM"/><use transform="matrix(0.05,0,0,0.05,62.900000000000006,0)" xlink:href="#aN"/><use transform="matrix(0.05,0,0,0.05,66.85000000000001,0)" xlink:href="#bg"/><use transform="matrix(0.05,0,0,0.05,76.85000000000001,0)" xlink:href="#aX"/></g><g id="J"><use transform="matrix(0.05,0,0,0.05,0,0)" xlink:href="#bh"/><use transform="matrix(0.05,0,0,0.05,10,0)" xlink:href="#aR"/><use transform="matrix(0.05,0,0,0.05,19,0)" xlink:href="#aQ"/><use transform="matrix(0.05,0,0,0.05,29,0)" xlink:href="#aL"/><use transform="matrix(0.05,0,0,0.05,34.95,0)" xlink:href="#aR"/></g><g id="K"><use transform="matrix(0.05,0,0,0.05,0,0)" xlink:href="#aX"/><use transform="matrix(0.05,0,0,0.05,10,0)" xlink:href="#aK"/><use transform="matrix(0.05,0,0,0.05,20,0)" xlink:href="#bd"/><use transform="matrix(0.05,0,0,0.05,34.95,0)" xlink:href="#aQ"/></g><g id="L"><use transform="matrix(0.05,0,0,0.05,0,0)" xlink:href="#aK"/><use transform="matrix(0.05,0,0,0.05,10,0)" xlink:href="#aO"/><use transform="matrix(0.05,0,0,0.05,19,0)" xlink:href="#aM"/><use transform="matrix(0.05,0,0,0.05,24,0)" xlink:href="#aN"/><use transform="matrix(0.05,0,0,0.05,27.950000000000003,0)" xlink:href="#aZ"/><use transform="matrix(0.05,0,0,0.05,36.95,0)" xlink:href="#aQ"/><use transform="matrix(0.05,0,0,0.05,46.95,0)" xlink:href="#bc"/><use transform="matrix(0.05,0,0,0.05,56.95,0)" xlink:href="#aR"/><use transform="matrix(0.05,0,0,0.05,65.95,0)" xlink:href="#aM"/><use transform="matrix(0.05,0,0,0.05,70.95,0)" xlink:href="#bg"/><use transform="matrix(0.05,0,0,0.05,80.95,0)" xlink:href="#aL"/><use transform="matrix(0.05,0,0,0.05,86.9,0)" xlink:href="#aK"/><use transform="matrix(0.05,0,0,0.05,96.9,0)" xlink:href="#aW"/><use transform="matrix(0.05,0,0,0.05,106.9,0)" xlink:href="#aQ"/><use transform="matrix(0.05,0,0,0.05,116.9,0)" xlink:href="#bc"/><use transform="matrix(0.05,0,0,0.05,126.9,0)" xlink:href="#aV"/><use transform="matrix(0.05,0,0,0.05,136.9,0)" xlink:href="#aP"/><use transform="matrix(0.05,0,0,0.05,140.85,0)" xlink:href="#bg"/><use transform="matrix(0.05,0,0,0.05,150.85,0)" xlink:href="#aV"/><use transform="matrix(0.05,0,0,0.05,160.85,0)" xlink:href="#aR"/></g><path d="M143 0L79-87 56-68V0H24v-261h32v163l83-92h37l-77 82L181 0h-38" id="bl"/><g id="M"><use transform="matrix(0.05,0,0,0.05,0,0)" xlink:href="#bl"/><use transform="matrix(0.05,0,0,0.05,9,0)" xlink:href="#aQ"/><use transform="matrix(0.05,0,0,0.05,19,0)" xlink:href="#ba"/></g><path d="M101-234c-31-9-42 10-38 44h38v23H63V0H32v-167H5v-23h27c-7-52 17-82 69-68v24" id="bm"/><g id="N"><use transform="matrix(0.05,0,0,0.05,0,0)" xlink:href="#bm"/><use transform="matrix(0.05,0,0,0.05,5,0)" xlink:href="#aN"/><use transform="matrix(0.05,0,0,0.05,8.95,0)" xlink:href="#aP"/><use transform="matrix(0.05,0,0,0.05,12.899999999999999,0)" xlink:href="#aQ"/><use transform="matrix(0.05,0,0,0.05,22.9,0)" xlink:href="#aX"/><use transform="matrix(0.05,0,0,0.05,32.9,0)" xlink:href="#aK"/><use transform="matrix(0.05,0,0,0.05,42.9,0)" xlink:href="#bd"/><use transform="matrix(0.05,0,0,0.05,57.85,0)" xlink:href="#aQ"/></g><g id="O"><use transform="matrix(0.05,0,0,0.05,0,0)" xlink:href="#aO"/><use transform="matrix(0.05,0,0,0.05,9,0)" xlink:href="#bg"/><use transform="matrix(0.05,0,0,0.05,19,0)" xlink:href="#aX"/><use transform="matrix(0.05,0,0,0.05,29,0)" xlink:href="#aM"/><use transform="matrix(0.05,0,0,0.05,34,0)" xlink:href="#aQ"/><use transform="matrix(0.05,0,0,0.05,44,0)" xlink:href="#aX"/><use transform="matrix(0.05,0,0,0.05,54,0)" xlink:href="#aM"/><use transform="matrix(0.05,0,0,0.05,59,0)" xlink:href="#bc"/><use transform="matrix(0.05,0,0,0.05,69,0)" xlink:href="#aM"/><use transform="matrix(0.05,0,0,0.05,74,0)" xlink:href="#ba"/><use transform="matrix(0.05,0,0,0.05,83,0)" xlink:href="#be"/><use transform="matrix(0.05,0,0,0.05,93,0)" xlink:href="#aQ"/></g><g id="P"><use transform="matrix(0.05,0,0,0.05,0,0)" xlink:href="#bd"/><use transform="matrix(0.05,0,0,0.05,14.950000000000001,0)" xlink:href="#aQ"/><use transform="matrix(0.05,0,0,0.05,24.950000000000003,0)" xlink:href="#aM"/><use transform="matrix(0.05,0,0,0.05,29.950000000000003,0)" xlink:href="#aK"/><use transform="matrix(0.05,0,0,0.05,39.95,0)" xlink:href="#aU"/><use transform="matrix(0.05,0,0,0.05,49.95,0)" xlink:href="#aK"/><use transform="matrix(0.05,0,0,0.05,59.95,0)" xlink:href="#aM"/><use transform="matrix(0.05,0,0,0.05,64.95,0)" xlink:href="#aK"/></g><g id="Q"><use transform="matrix(0.05,0,0,0.05,0,0)" xlink:href="#aR"/><use transform="matrix(0.05,0,0,0.05,9,0)" xlink:href="#aQ"/><use transform="matrix(0.05,0,0,0.05,19,0)" xlink:href="#aL"/><use transform="matrix(0.05,0,0,0.05,24.95,0)" xlink:href="#aZ"/><use transform="matrix(0.05,0,0,0.05,33.95,0)" xlink:href="#aN"/><use transform="matrix(0.05,0,0,0.05,37.900000000000006,0)" xlink:href="#aO"/><use transform="matrix(0.05,0,0,0.05,46.900000000000006,0)" xlink:href="#aQ"/><use transform="matrix(0.05,0,0,0.05,56.900000000000006,0)" xlink:href="#bc"/><use transform="matrix(0.05,0,0,0.05,66.9,0)" xlink:href="#aX"/><use transform="matrix(0.05,0,0,0.05,76.9,0)" xlink:href="#aK"/><use transform="matrix(0.05,0,0,0.05,86.9,0)" xlink:href="#bd"/><use transform="matrix(0.05,0,0,0.05,101.85000000000001,0)" xlink:href="#aQ"/></g><g id="R"><use transform="matrix(0.05,0,0,0.05,0,0)" xlink:href="#aV"/><use transform="matrix(0.05,0,0,0.05,10,0)" xlink:href="#ba"/><use transform="matrix(0.05,0,0,0.05,19,0)" xlink:href="#aM"/><use transform="matrix(0.05,0,0,0.05,24,0)" xlink:href="#aQ"/><use transform="matrix(0.05,0,0,0.05,34,0)" xlink:href="#bc"/><use transform="matrix(0.05,0,0,0.05,44,0)" xlink:href="#aR"/><use transform="matrix(0.05,0,0,0.05,53,0)" xlink:href="#aN"/><use transform="matrix(0.05,0,0,0.05,56.95,0)" xlink:href="#bi"/><use transform="matrix(0.05,0,0,0.05,65.95,0)" xlink:href="#aQ"/></g><g id="S"><use transform="matrix(0.05,0,0,0.05,0,0)" xlink:href="#aO"/><use transform="matrix(0.05,0,0,0.05,9,0)" xlink:href="#aY"/><use transform="matrix(0.05,0,0,0.05,19,0)" xlink:href="#aQ"/><use transform="matrix(0.05,0,0,0.05,29,0)" xlink:href="#aO"/><use transform="matrix(0.05,0,0,0.05,38,0)" xlink:href="#bl"/><use transform="matrix(0.05,0,0,0.05,47,0)" xlink:href="#aR"/><use transform="matrix(0.05,0,0,0.05,56,0)" xlink:href="#bh"/><use transform="matrix(0.05,0,0,0.05,66,0)" xlink:href="#bd"/></g><g id="T"><use transform="matrix(0.05,0,0,0.05,0,0)" xlink:href="#aK"/><use transform="matrix(0.05,0,0,0.05,10,0)" xlink:href="#aO"/><use transform="matrix(0.05,0,0,0.05,19,0)" xlink:href="#aM"/><use transform="matrix(0.05,0,0,0.05,24,0)" xlink:href="#aN"/><use transform="matrix(0.05,0,0,0.05,27.950000000000003,0)" xlink:href="#aZ"/><use transform="matrix(0.05,0,0,0.05,36.95,0)" xlink:href="#aQ"/><use transform="matrix(0.05,0,0,0.05,46.95,0)" xlink:href="#bc"/><use transform="matrix(0.05,0,0,0.05,56.95,0)" xlink:href="#aR"/><use transform="matrix(0.05,0,0,0.05,65.95,0)" xlink:href="#aM"/><use transform="matrix(0.05,0,0,0.05,70.95,0)" xlink:href="#bg"/><use transform="matrix(0.05,0,0,0.05,80.95,0)" xlink:href="#aL"/><use transform="matrix(0.05,0,0,0.05,86.9,0)" xlink:href="#aK"/><use transform="matrix(0.05,0,0,0.05,96.9,0)" xlink:href="#aW"/><use transform="matrix(0.05,0,0,0.05,106.9,0)" xlink:href="#aQ"/><use transform="matrix(0.05,0,0,0.05,116.9,0)" xlink:href="#bc"/><use transform="matrix(0.05,0,0,0.05,126.9,0)" xlink:href="#aK"/><use transform="matrix(0.05,0,0,0.05,136.9,0)" xlink:href="#aM"/><use transform="matrix(0.05,0,0,0.05,141.9,0)" xlink:href="#aM"/><use transform="matrix(0.05,0,0,0.05,146.9,0)" xlink:href="#aK"/><use transform="matrix(0.05,0,0,0.05,156.9,0)" xlink:href="#aO"/><use transform="matrix(0.05,0,0,0.05,165.9,0)" xlink:href="#aY"/><use transform="matrix(0.05,0,0,0.05,175.9,0)" xlink:href="#bd"/><use transform="matrix(0.05,0,0,0.05,190.85,0)" xlink:href="#aQ"/><use transform="matrix(0.05,0,0,0.05,200.85,0)" xlink:href="#aX"/><use transform="matrix(0.05,0,0,0.05,210.85000000000002,0)" xlink:href="#aM"/><use transform="matrix(0.05,0,0,0.05,215.85000000000002,0)" xlink:href="#aR"/></g><g id="U"><use transform="matrix(0.05,0,0,0.05,0,0)" xlink:href="#aL"/><use transform="matrix(0.05,0,0,0.05,5.95,0)" xlink:href="#aQ"/><use transform="matrix(0.05,0,0,0.05,15.949999999999998,0)" xlink:href="#aO"/><use transform="matrix(0.05,0,0,0.05,24.95,0)" xlink:href="#bg"/><use transform="matrix(0.05,0,0,0.05,34.95,0)" xlink:href="#aL"/><use transform="matrix(0.05,0,0,0.05,40.900000000000006,0)" xlink:href="#aU"/><use transform="matrix(0.05,0,0,0.05,50.900000000000006,0)" xlink:href="#bc"/><use transform="matrix(0.05,0,0,0.05,60.900000000000006,0)" xlink:href="#aM"/><use transform="matrix(0.05,0,0,0.05,65.9,0)" xlink:href="#ba"/><use transform="matrix(0.05,0,0,0.05,74.9,0)" xlink:href="#be"/><use transform="matrix(0.05,0,0,0.05,84.9,0)" xlink:href="#aQ"/></g><g id="V"><use transform="matrix(0.05,0,0,0.05,0,0)" xlink:href="#aL"/><use transform="matrix(0.05,0,0,0.05,5.95,0)" xlink:href="#aQ"/><use transform="matrix(0.05,0,0,0.05,15.949999999999998,0)" xlink:href="#aO"/><use transform="matrix(0.05,0,0,0.05,24.95,0)" xlink:href="#bg"/><use transform="matrix(0.05,0,0,0.05,34.95,0)" xlink:href="#aL"/><use transform="matrix(0.05,0,0,0.05,40.900000000000006,0)" xlink:href="#aU"/><use transform="matrix(0.05,0,0,0.05,50.900000000000006,0)" xlink:href="#bc"/><use transform="matrix(0.05,0,0,0.05,60.900000000000006,0)" xlink:href="#aN"/><use transform="matrix(0.05,0,0,0.05,64.85000000000001,0)" xlink:href="#aU"/></g><g id="W"><use transform="matrix(0.05,0,0,0.05,0,0)" xlink:href="#aV"/><use transform="matrix(0.05,0,0,0.05,10,0)" xlink:href="#aP"/><use transform="matrix(0.05,0,0,0.05,13.949999999999998,0)" xlink:href="#bg"/><use transform="matrix(0.05,0,0,0.05,23.95,0)" xlink:href="#aV"/><use transform="matrix(0.05,0,0,0.05,33.95,0)" xlink:href="#bc"/><use transform="matrix(0.05,0,0,0.05,43.95,0)" xlink:href="#aN"/><use transform="matrix(0.05,0,0,0.05,47.900000000000006,0)" xlink:href="#aU"/></g></defs></g></svg>